<?xml version="1.0" standalone="no"?>
<!DOCTYPE svg PUBLIC "-//W3C//DTD SVG 20010904//EN"
 "http://www.w3.org/TR/2001/REC-SVG-20010904/DTD/svg10.dtd">
<svg version="1.0" xmlns="http://www.w3.org/2000/svg"
 width="263.000000pt" height="192.000000pt" viewBox="0 0 263.000000 192.000000"
 preserveAspectRatio="xMidYMid meet">

<g transform="translate(0.000000,192.000000) scale(0.100000,-0.100000)"
fill="#000000" stroke="none">
<path d="M930 1901 c-69 -15 -143 -63 -241 -158 -54 -52 -102 -92 -107 -89
-11 7 -73 -33 -122 -78 -19 -18 -45 -40 -58 -48 l-23 -16 49 -58 c27 -33 168
-178 314 -324 162 -162 297 -308 349 -375 145 -189 296 -333 513 -488 131 -95
343 -191 486 -222 62 -13 67 -13 95 7 34 23 75 96 75 130 -1 49 -30 99 -98
175 -144 159 -292 362 -292 401 0 11 -7 25 -15 32 -7 6 -17 32 -21 58 -4 27
-16 55 -29 68 -13 13 -26 42 -30 64 -4 24 -19 56 -36 75 -16 18 -29 42 -29 53
0 11 -5 33 -11 49 -6 15 -11 55 -10 87 0 35 -5 68 -13 80 -7 12 -16 33 -20 48
-4 18 -11 25 -20 22 -18 -7 -32 46 -15 56 8 6 8 9 0 11 -7 3 -15 35 -19 74
l-7 70 -38 3 c-51 4 -80 -17 -96 -67 -11 -39 -14 -41 -51 -41 -92 0 -188 34
-263 92 -61 48 -70 76 -62 184 7 90 6 93 -17 107 -29 19 -93 27 -138 18z m370
-723 c86 -206 209 -447 235 -464 36 -23 72 -11 92 31 25 52 36 43 28 -22 -22
-179 -153 -220 -223 -71 -42 91 -199 628 -183 628 4 0 27 -46 51 -102z"/>
<path d="M375 1442 c14 -130 117 -323 173 -322 4 0 2 4 -3 8 -16 11 -85 119
-117 183 -16 32 -36 86 -44 121 l-14 63 5 -53z"/>
<path d="M575 1080 c-7 -12 15 -33 190 -179 61 -50 129 -109 153 -130 23 -21
42 -37 42 -35 0 2 24 -20 53 -49 30 -28 51 -56 49 -61 -3 -5 0 -6 6 -2 5 3 20
-10 32 -29 12 -19 25 -35 29 -35 4 0 19 -16 33 -36 14 -20 29 -31 32 -26 6 11
-146 184 -225 257 -24 23 -102 90 -174 150 -71 59 -149 126 -171 148 -27 25
-44 35 -49 27z"/>
<path d="M1236 452 c-9 -15 245 -228 258 -215 3 3 6 1 6 -6 0 -6 12 -16 26
-21 14 -6 40 -21 59 -36 21 -15 36 -21 40 -15 9 16 1 24 -67 66 -63 38 -210
146 -280 205 -20 17 -39 27 -42 22z"/>
<path d="M1670 136 c0 -14 92 -57 210 -98 30 -11 89 -21 130 -24 l75 -5 -92
25 c-50 13 -140 45 -200 70 -121 51 -123 52 -123 32z"/>
</g>
</svg>
