<?xml version="1.0" encoding="UTF-8"?>
<svg version="1.1" xmlns="http://www.w3.org/2000/svg" width="64" height="64">
<path d="M0 0 C2.5625 0.1875 2.5625 0.1875 4.5625 2.1875 C4.5625 3.1775 4.5625 4.1675 4.5625 5.1875 C6.295 5.249375 6.295 5.249375 8.0625 5.3125 C13.33699543 5.96829872 16.78170963 8.5809396 20.5625 12.1875 C24.10680383 16.98946003 24.69494444 21.06216702 24.625 26.9375 C24.61597656 27.92234375 24.60695312 28.9071875 24.59765625 29.921875 C24.58605469 30.66953125 24.57445312 31.4171875 24.5625 32.1875 C25.23796875 32.35765625 25.9134375 32.5278125 26.609375 32.703125 C35.87972558 35.22165955 35.87972558 35.22165955 38.5625 39.1875 C39.5 41.625 39.5 41.625 39.5625 44.1875 C36.95103998 49.82648315 33.39446397 51.04793011 27.81640625 53.17578125 C14.58099321 57.29099371 2.88649935 53.8065487 -9.375 48.3125 C-10.38884766 47.87808594 -11.40269531 47.44367187 -12.44726562 46.99609375 C-21.20313492 43.14189087 -21.20313492 43.14189087 -24.4375 39.1875 C-24.93920898 37.19213867 -24.93920898 37.19213867 -24.93359375 35.10546875 C-24.93423828 34.33783203 -24.93488281 33.57019531 -24.93554688 32.77929688 C-24.91556641 31.98587891 -24.89558594 31.19246094 -24.875 30.375 C-24.88208984 29.59318359 -24.88917969 28.81136719 -24.89648438 28.00585938 C-24.81621824 20.6152003 -22.79892855 14.54892855 -17.4375 9.1875 C-14.6875 8.375 -14.6875 8.375 -12.4375 8.1875 C-12.4375 12.1875 -12.4375 12.1875 -14.8125 14.625 C-15.67875 15.470625 -16.545 16.31625 -17.4375 17.1875 C-19.77287114 21.51109251 -19.67382038 25.70894221 -19.5625 30.5 C-19.54896484 31.61084961 -19.54896484 31.61084961 -19.53515625 32.74414062 C-19.51174213 34.55873467 -19.47587615 36.37316071 -19.4375 38.1875 C-15.50072404 39.83506905 -11.56295764 41.48025758 -7.625 43.125 C-5.94567383 43.82786133 -5.94567383 43.82786133 -4.23242188 44.54492188 C-3.15927734 44.99287109 -2.08613281 45.44082031 -0.98046875 45.90234375 C0.00928955 46.31605225 0.99904785 46.72976074 2.01879883 47.15600586 C11.55960124 51.02488869 22.05232244 49.96769638 31.5859375 46.55078125 C33.82670955 45.30982892 33.82670955 45.30982892 34.3515625 42.54296875 C34.42117187 41.76566406 34.49078125 40.98835938 34.5625 40.1875 C31.5925 39.1975 28.6225 38.2075 25.5625 37.1875 C24.9025 38.5075 24.2425 39.8275 23.5625 41.1875 C19.17858959 43.18018655 14.95901599 43.54241419 10.1875 43.8125 C8.94226562 43.88726562 7.69703125 43.96203125 6.4140625 44.0390625 C5.47304688 44.08804688 4.53203125 44.13703125 3.5625 44.1875 C3.5625 42.8675 3.5625 41.5475 3.5625 40.1875 C8.8425 39.1975 14.1225 38.2075 19.5625 37.1875 C20.56772724 24.89743269 20.56772724 24.89743269 15.5625 14.1875 C10.27476521 10.02176762 5.06442342 9.74354175 -1.4375 10.1875 C-3.1019053 16.08734316 -3.82350337 21.57316954 -4.0625 27.6875 C-4.10117187 28.50992188 -4.13984375 29.33234375 -4.1796875 30.1796875 C-4.27281692 32.1819701 -4.35618985 34.18470262 -4.4375 36.1875 C-5.4275 36.1875 -6.4175 36.1875 -7.4375 36.1875 C-7.55511144 32.22942285 -7.62521882 28.27180379 -7.6875 24.3125 C-7.72101562 23.20390625 -7.75453125 22.0953125 -7.7890625 20.953125 C-7.87596941 13.56603776 -6.91168516 7.76099624 -3.4375 1.1875 C-2.4375 0.1875 -2.4375 0.1875 0 0 Z " fill="#8F8F8F" transform="translate(24.4375,3.8125)"/>
<path d="M0 0 C2.4375 0.375 2.4375 0.375 5 1 C6.50934217 4.01868434 6.17510672 6.67297229 6 10 C5.01 11.485 5.01 11.485 4 13 C1.5625 12.625 1.5625 12.625 -1 12 C-2.50934217 8.98131566 -2.17510672 6.32702771 -2 3 C-1.34 2.01 -0.68 1.02 0 0 Z " fill="#8E8E8E" transform="translate(35,25)"/>
</svg>
