<svg version="1.1" xmlns="http://www.w3.org/2000/svg" xmlns:xlink="http://www.w3.org/1999/xlink" width="61" height="60" viewBox="0,0,256,251.8"><g fill="none" fill-rule="nonzero" stroke="none" stroke-width="none" stroke-linecap="butt" stroke-linejoin="miter" stroke-miterlimit="10" stroke-dasharray="" stroke-dashoffset="0" font-family="none" font-weight="none" font-size="none" text-anchor="none" style="mix-blend-mode: normal"><g transform="translate(-0.00616,-0.2639) scale(4.19672,4.19672)"><path d="M27.1365,0.50971c-6.66,0.86049 -12.4018,3.68616 -16.9929,8.38399c-1.45284,1.4768 -2.23158,2.4419 -3.37063,4.1745c-1.62722,2.442 -2.91738,5.3723 -3.63801,8.2561c-0.65088,2.5931 -0.80198,3.9536 -0.79036,7.0933c0,2.4419 0.26733,7.1165 0.4533,8.1397c0.05811,0.314 0.02324,0.3721 -0.32545,0.5466c-0.61602,0.2907 -1.06931,0.7209 -1.34827,1.3023c-0.54628,1.0815 -0.54628,1.035 1.4645,9.9771c2.0689,9.2212 1.99916,9.0235 3.14984,9.7096c0.88335,0.5349 1.42963,0.5814 2.90575,0.2791c0.92984,-0.1977 1.23204,-0.2326 1.27853,-0.1163c0.1046,0.314 0.8717,1.0349 1.3367,1.2558c0.7322,0.3605 1.7666,0.314 3.8588,-0.1511c2.0108,-0.4535 2.2781,-0.5698 2.8825,-1.2326c0.5811,-0.6396 0.7787,-1.1512 0.7787,-1.9536c0,-0.8605 -4.5446,-21.1983 -4.8816,-21.8611c-0.3371,-0.6512 -1.1042,-1.2791 -1.8713,-1.5001c-0.5696,-0.1628 -0.7323,-0.1628 -1.5343,-0.0116l-0.88332,0.1628l-0.1046,-1.1047c-0.17435,-2.0582 -0.10461,-6.349 0.11623,-7.5351c1.13909,-6.0816 4.68409,-11.1515 9.99579,-14.33765c3.6148,-2.16286 8.1942,-3.23266 12.425,-2.90706c7.7177,0.58141 14.3777,5.03501 17.6437,11.80271c1.7086,3.535 2.22,6.4653 1.9759,11.2794c-0.0697,1.4652 -0.1511,2.6978 -0.1743,2.7443c-0.0349,0.0349 -0.4533,-0.0117 -0.9531,-0.1047c-0.8136,-0.1512 -0.9647,-0.1512 -1.5458,0.0116c-0.7672,0.221 -1.5343,0.8489 -1.8714,1.5001c-0.337,0.6628 -4.8816,21.0006 -4.8816,21.8611c0,0.7675 0.1976,1.2908 0.6974,1.8722c0.6044,0.6744 1.046,0.8721 2.9522,1.3023c2.1386,0.4768 3.1382,0.5233 3.8705,0.1628c0.4649,-0.2209 1.232,-0.9418 1.3366,-1.2558c0.0465,-0.1163 0.3487,-0.0814 1.2785,0.1163c1.4762,0.3023 2.0225,0.2558 2.9058,-0.2791c1.1391,-0.6861 1.0926,-0.5117 3.1033,-9.4189c1.9992,-8.8724 2.0573,-9.2328 1.5227,-10.2561c-0.2674,-0.5117 -0.7904,-1.0233 -1.4413,-1.3954c-0.1743,-0.1047 -0.186,-0.2326 -0.0697,-1.3954c0.4533,-4.7211 0.4649,-9.7445 0.0116,-12.2678c-1.8481,-10.4539 -9.5657,-18.94249 -19.9335,-21.94258c-2.5222,-0.72096 -4.4051,-0.98841 -7.4387,-1.03492c-1.79,-0.02326 -3.0685,0.01163 -3.8937,0.12791zM33.9592,2.02139c10.2399,1.33725 18.713,8.16301 21.9675,17.67501c1.3831,4.0931 1.6388,7.6048 1.0693,14.826c-0.1627,2.0815 -0.1627,2.0815 -0.6509,1.9535c-0.3254,-0.0814 -0.3835,-0.1511 -0.3835,-0.4418c0,-0.9419 -1.0345,-2.1745 -2.1038,-2.4885c-0.3371,-0.1046 -0.6858,-0.186 -0.7671,-0.186c-0.1279,0 -0.1511,-0.1512 -0.1046,-0.6745c0.1627,-1.7791 0.1976,-2.4652 0.1859,-4.6164c0,-1.4884 -0.0581,-2.7443 -0.1743,-3.4768c-0.5463,-3.5699 -1.9643,-7.0119 -4.0913,-9.8957c-1.0345,-1.3954 -3.5567,-3.8838 -4.9165,-4.84899c-3.115,-2.20937 -6.5438,-3.5815 -10.2632,-4.10477c-1.5807,-0.22094 -4.7305,-0.22094 -6.3694,0.01162c-9.4611,1.314 -17.1904,8.46534 -19.03847,17.57034c-0.49979,2.4419 -0.55791,4.1745 -0.27895,8.7793c0.05811,1.0582 0.04649,1.2559 -0.10461,1.2559c-0.09299,0 -0.43005,0.0814 -0.7555,0.1744c-1.05769,0.314 -2.12701,1.5582 -2.12701,2.4884c0,0.3373 -0.16272,0.4768 -0.56953,0.4768c-0.17434,0 -0.22083,-0.1395 -0.27895,-0.721c-0.23246,-2.3256 -0.34869,-4.7908 -0.36031,-7.3606c-0.01163,-3.2094 0.11623,-4.2909 0.76712,-6.8607c2.16188,-8.4421 8.76371,-15.48888 17.19041,-18.31454c1.8481,-0.6163 4.2192,-1.13958 6.0324,-1.314c1.2204,-0.12791 4.8816,-0.06977 6.1253,0.09303zM11.9917,34.4061c0.2092,0.1163 0.4533,0.3372 0.5463,0.4884c0.093,0.1512 1.2204,5.0118 2.5222,10.8027l2.3478,10.5352l-0.2208,0.4418c-0.1162,0.2442 -0.3487,0.5466 -0.5114,0.6629c-0.4068,0.2907 -3.8937,1.0581 -4.3935,0.9651c-0.2092,-0.0349 -0.5463,-0.2093 -0.7439,-0.3954c-0.4068,-0.3604 -0.1627,0.6512 -3.40554,-13.919l-1.72021,-7.6979l0.22084,-0.4419c0.12785,-0.2442 0.34869,-0.5349 0.51141,-0.6512c0.29058,-0.2093 3.4869,-1 4.1262,-1.0116c0.1976,-0.0117 0.5114,0.093 0.7206,0.2209zM51.754,34.5805c0.9996,0.221 1.9527,0.5001 2.1154,0.6163c0.1627,0.1163 0.3836,0.407 0.5114,0.6512l0.2209,0.4419l-1.7086,7.6398c-3.3474,15.0121 -3.0104,13.6167 -3.4172,13.9771c-0.1976,0.1745 -0.5346,0.3605 -0.7439,0.3954c-0.4997,0.093 -3.9867,-0.6744 -4.3935,-0.9651c-0.1627,-0.1163 -0.3951,-0.4187 -0.5114,-0.6629l-0.2208,-0.4418l2.3478,-10.5352c1.3018,-5.7909 2.4293,-10.6515 2.5222,-10.8027c0.2209,-0.3372 0.8369,-0.721 1.1856,-0.721c0.1511,0 1.0925,0.1861 2.0921,0.407zM5.32009,38.2086c0.03487,0.186 0.96471,4.3257 2.05727,9.2212c1.09257,4.8955 1.99916,8.977 2.01079,9.07c0.02324,0.1744 -1.26691,0.5582 -1.98754,0.5698c-0.51141,0.0116 -1.11581,-0.2791 -1.35989,-0.6512c-0.20922,-0.3139 -3.77748,-16.0702 -3.77748,-16.6749c0,-0.4535 0.36031,-1.0582 0.74387,-1.2559c0.24408,-0.1395 1.75508,-0.5465 2.11539,-0.5814c0.06974,-0.0116 0.16272,0.1279 0.19759,0.3024zM56.8682,38.1272c0.5346,0.1279 1.0809,0.3139 1.2087,0.4069c0.3836,0.2559 0.6742,0.7791 0.6742,1.1978c0,0.593 -3.5683,16.3726 -3.7775,16.6865c-0.2441,0.3721 -0.8485,0.6628 -1.3599,0.6512c-0.7206,-0.0116 -2.0108,-0.3954 -1.9875,-0.5698c0.0116,-0.093 0.9182,-4.1745 2.0108,-9.07c1.0925,-4.8955 2.0224,-9.0352 2.0572,-9.2212c0.0349,-0.1745 0.093,-0.314 0.1395,-0.314c0.0349,0 0.5114,0.1046 1.0345,0.2326z" fill="#c92071" stroke="none" stroke-width="1"></path><path d="M27.1365,0.50971c-6.66,0.86049 -12.4018,3.68616 -16.9929,8.38399c-1.45284,1.4768 -2.23158,2.4419 -3.37063,4.1745c-1.62722,2.442 -2.91738,5.3723 -3.63801,8.2561c-0.65088,2.5931 -0.80198,3.9536 -0.79036,7.0933c0,2.4419 0.26733,7.1165 0.4533,8.1397c0.05811,0.314 0.02324,0.3721 -0.32545,0.5466c-0.61602,0.2907 -1.06931,0.7209 -1.34827,1.3023c-0.54628,1.0815 -0.54628,1.035 1.4645,9.9771c2.0689,9.2212 1.99916,9.0235 3.14984,9.7096c0.88335,0.5349 1.42963,0.5814 2.90575,0.2791c0.92984,-0.1977 1.23204,-0.2326 1.27853,-0.1163c0.1046,0.314 0.8717,1.0349 1.3367,1.2558c0.7322,0.3605 1.7666,0.314 3.8588,-0.1511c2.0108,-0.4535 2.2781,-0.5698 2.8825,-1.2326c0.5811,-0.6396 0.7787,-1.1512 0.7787,-1.9536c0,-0.8605 -4.5446,-21.1983 -4.8816,-21.8611c-0.3371,-0.6512 -1.1042,-1.2791 -1.8713,-1.5001c-0.5696,-0.1628 -0.7323,-0.1628 -1.5343,-0.0116l-0.88332,0.1628l-0.1046,-1.1047c-0.17435,-2.0582 -0.10461,-6.349 0.11623,-7.5351c1.13909,-6.0816 4.68409,-11.1515 9.99579,-14.33765c3.6148,-2.16286 8.1942,-3.23266 12.425,-2.90706c7.7177,0.58141 14.3777,5.03501 17.6437,11.80271c1.7086,3.535 2.22,6.4653 1.9759,11.2794c-0.0697,1.4652 -0.1511,2.6978 -0.1743,2.7443c-0.0349,0.0349 -0.4533,-0.0117 -0.9531,-0.1047c-0.8136,-0.1512 -0.9647,-0.1512 -1.5458,0.0116c-0.7672,0.221 -1.5343,0.8489 -1.8714,1.5001c-0.337,0.6628 -4.8816,21.0006 -4.8816,21.8611c0,0.7675 0.1976,1.2908 0.6974,1.8722c0.6044,0.6744 1.046,0.8721 2.9522,1.3023c2.1386,0.4768 3.1382,0.5233 3.8705,0.1628c0.4649,-0.2209 1.232,-0.9418 1.3366,-1.2558c0.0465,-0.1163 0.3487,-0.0814 1.2785,0.1163c1.4762,0.3023 2.0225,0.2558 2.9058,-0.2791c1.1391,-0.6861 1.0926,-0.5117 3.1033,-9.4189c1.9992,-8.8724 2.0573,-9.2328 1.5227,-10.2561c-0.2674,-0.5117 -0.7904,-1.0233 -1.4413,-1.3954c-0.1743,-0.1047 -0.186,-0.2326 -0.0697,-1.3954c0.4533,-4.7211 0.4649,-9.7445 0.0116,-12.2678c-1.8481,-10.4539 -9.5657,-18.94249 -19.9335,-21.94258c-2.5222,-0.72096 -4.4051,-0.98841 -7.4387,-1.03492c-1.79,-0.02326 -3.0685,0.01163 -3.8937,0.12791zM33.9592,2.02139c10.2399,1.33725 18.713,8.16301 21.9675,17.67501c1.3831,4.0931 1.6388,7.6048 1.0693,14.826c-0.1627,2.0815 -0.1627,2.0815 -0.6509,1.9535c-0.3254,-0.0814 -0.3835,-0.1511 -0.3835,-0.4418c0,-0.9419 -1.0345,-2.1745 -2.1038,-2.4885c-0.3371,-0.1046 -0.6858,-0.186 -0.7671,-0.186c-0.1279,0 -0.1511,-0.1512 -0.1046,-0.6745c0.1627,-1.7791 0.1976,-2.4652 0.1859,-4.6164c0,-1.4884 -0.0581,-2.7443 -0.1743,-3.4768c-0.5463,-3.5699 -1.9643,-7.0119 -4.0913,-9.8957c-1.0345,-1.3954 -3.5567,-3.8838 -4.9165,-4.84899c-3.115,-2.20937 -6.5438,-3.5815 -10.2632,-4.10477c-1.5807,-0.22094 -4.7305,-0.22094 -6.3694,0.01162c-9.4611,1.314 -17.1904,8.46534 -19.03847,17.57034c-0.49979,2.4419 -0.55791,4.1745 -0.27895,8.7793c0.05811,1.0582 0.04649,1.2559 -0.10461,1.2559c-0.09299,0 -0.43005,0.0814 -0.7555,0.1744c-1.05769,0.314 -2.12701,1.5582 -2.12701,2.4884c0,0.3373 -0.16272,0.4768 -0.56953,0.4768c-0.17434,0 -0.22083,-0.1395 -0.27895,-0.721c-0.23246,-2.3256 -0.34869,-4.7908 -0.36031,-7.3606c-0.01163,-3.2094 0.11623,-4.2909 0.76712,-6.8607c2.16188,-8.4421 8.76371,-15.48888 17.19041,-18.31454c1.8481,-0.6163 4.2192,-1.13958 6.0324,-1.314c1.2204,-0.12791 4.8816,-0.06977 6.1253,0.09303zM11.9917,34.4061c0.2092,0.1163 0.4533,0.3372 0.5463,0.4884c0.093,0.1512 1.2204,5.0118 2.5222,10.8027l2.3478,10.5352l-0.2208,0.4418c-0.1162,0.2442 -0.3487,0.5466 -0.5114,0.6629c-0.4068,0.2907 -3.8937,1.0581 -4.3935,0.9651c-0.2092,-0.0349 -0.5463,-0.2093 -0.7439,-0.3954c-0.4068,-0.3604 -0.1627,0.6512 -3.40554,-13.919l-1.72021,-7.6979l0.22084,-0.4419c0.12785,-0.2442 0.34869,-0.5349 0.51141,-0.6512c0.29058,-0.2093 3.4869,-1 4.1262,-1.0116c0.1976,-0.0117 0.5114,0.093 0.7206,0.2209zM51.754,34.5805c0.9996,0.221 1.9527,0.5001 2.1154,0.6163c0.1627,0.1163 0.3836,0.407 0.5114,0.6512l0.2209,0.4419l-1.7086,7.6398c-3.3474,15.0121 -3.0104,13.6167 -3.4172,13.9771c-0.1976,0.1745 -0.5346,0.3605 -0.7439,0.3954c-0.4997,0.093 -3.9867,-0.6744 -4.3935,-0.9651c-0.1627,-0.1163 -0.3951,-0.4187 -0.5114,-0.6629l-0.2208,-0.4418l2.3478,-10.5352c1.3018,-5.7909 2.4293,-10.6515 2.5222,-10.8027c0.2209,-0.3372 0.8369,-0.721 1.1856,-0.721c0.1511,0 1.0925,0.1861 2.0921,0.407zM5.32009,38.2086c0.03487,0.186 0.96471,4.3257 2.05727,9.2212c1.09257,4.8955 1.99916,8.977 2.01079,9.07c0.02324,0.1744 -1.26691,0.5582 -1.98754,0.5698c-0.51141,0.0116 -1.11581,-0.2791 -1.35989,-0.6512c-0.20922,-0.3139 -3.77748,-16.0702 -3.77748,-16.6749c0,-0.4535 0.36031,-1.0582 0.74387,-1.2559c0.24408,-0.1395 1.75508,-0.5465 2.11539,-0.5814c0.06974,-0.0116 0.16272,0.1279 0.19759,0.3024zM56.8682,38.1272c0.5346,0.1279 1.0809,0.3139 1.2087,0.4069c0.3836,0.2559 0.6742,0.7791 0.6742,1.1978c0,0.593 -3.5683,16.3726 -3.7775,16.6865c-0.2441,0.3721 -0.8485,0.6628 -1.3599,0.6512c-0.7206,-0.0116 -2.0108,-0.3954 -1.9875,-0.5698c0.0116,-0.093 0.9182,-4.1745 2.0108,-9.07c1.0925,-4.8955 2.0224,-9.0352 2.0572,-9.2212c0.0349,-0.1745 0.093,-0.314 0.1395,-0.314c0.0349,0 0.5114,0.1046 1.0345,0.2326z" fill="none" stroke="#c92071" stroke-width="0.25"></path></g></g></svg>