<svg version="1.1" xmlns="http://www.w3.org/2000/svg" xmlns:xlink="http://www.w3.org/1999/xlink" width="64" height="64" viewBox="0,0,256,256"><defs><clipPath id="clip-1"><rect x="0" y="0" width="64" height="64" id="clip0_309_855" fill="none"></rect></clipPath></defs><g fill="none" fill-rule="nonzero" stroke="none" stroke-width="1" stroke-linecap="butt" stroke-linejoin="miter" stroke-miterlimit="10" stroke-dasharray="" stroke-dashoffset="0" font-family="none" font-weight="none" font-size="none" text-anchor="none" style="mix-blend-mode: normal"><g transform="scale(4,4)"><g clip-path="url(#clip-1)"><path d="M16.875,2.61249c-3.8125,1.425 -7.25,2.75 -7.625,2.95c-1.0125,0.5125 -2.125,1.6875 -2.65,2.8125c-0.5875,1.2375 -6.6,19.33751 -6.6,19.87501c0,1.125 0.9375,2.4625 1.9375,2.7375c0.2625,0.0625 2.85,0.3125 5.7625,0.525l5.3,0.4125v14.2c0,12.4125 0.025,14.225 0.1875,14.4625c0.3875,0.55 5.375,1.975 9.1,2.5875c3.6375,0.6125 5.475,0.75 9.775,0.75c4.3,0 6.325,-0.1625 9.8125,-0.75c3.625,-0.6125 8.5625,-2.05 8.9375,-2.5875c0.1625,-0.2375 0.1875,-1.9625 0.1875,-14.4625v-14.1875l5.2875,-0.4125c2.9,-0.225 5.5,-0.4625 5.775,-0.5375c1,-0.275 1.9375,-1.6 1.9375,-2.75c0,-0.225 -1.4375,-4.725 -3.1875,-9.9875c-2.35,-7.0375 -3.3125,-9.77501 -3.6625,-10.36251c-0.5625,-0.95 -1.5625,-1.9 -2.5125,-2.375c-0.3875,-0.2 -3.8,-1.5125 -7.5875,-2.9375l-6.875,-2.575h-8.1875h-8.175zM38.875,2.24999c0,0.3625 -0.5375,1.7625 -0.925,2.4375c-0.825,1.4125 -2.6625,2.725 -4.3375,3.125c-2.3125,0.5375 -4.8,-0.15 -6.4875,-1.825c-0.825,-0.8125 -1.2875,-1.55 -1.7125,-2.7c-0.525,-1.4375 -1.3,-1.2875 6.5875,-1.2875c6.7375,0 6.875,0 6.875,0.25zM23.3,3.24999c0.1125,0.45 0.4375,1.2875 0.725,1.875c0.425,0.85 0.75,1.275 1.6,2.125c1.2,1.2 2.225,1.85 3.6875,2.3375c0.8875,0.3 1.1875,0.3375 2.6875,0.3375c1.5,0 1.8,-0.0375 2.6875,-0.3375c1.4625,-0.4875 2.4875,-1.1375 3.6875,-2.3375c0.85,-0.85 1.175,-1.275 1.6,-2.125c0.2875,-0.5875 0.6125,-1.4375 0.725,-1.8875l0.2,-0.825l0.9,0.3375c0.5125,0.2 0.9,0.425 0.925,0.5375c0.075,0.3625 -0.7,2.35 -1.3125,3.3625c-2.8,4.68751 -8.75,6.61251 -13.75,4.45001c-2.8,-1.22501 -5.0625,-3.66251 -6.0625,-6.53751c-0.2,-0.5875 -0.35,-1.1625 -0.325,-1.275c0.025,-0.1125 0.4,-0.3375 0.9125,-0.5375c0.4875,-0.1875 0.8875,-0.325 0.8875,-0.325c0.0125,0.0125 0.1125,0.375 0.225,0.825zM19.6,4.84999c1.2,3.9625 4.3,7.12501 8.2875,8.45001c1.7,0.5625 3.05,0.75 4.7875,0.6625c2.375,-0.125 4.55,-0.8375 6.5,-2.1375c2.4625,-1.6375 4.35,-4.15001 5.2125,-6.95001c0.1625,-0.5125 0.3,-0.9625 0.3125,-0.975c0.0625,-0.0875 8.875,3.275 9.3,3.5375c0.5625,0.35 1.3,1.175 1.6,1.775c0.1375,0.2625 1.6375,4.65001 3.3375,9.76251c2.15,6.45 3.0625,9.375 3.0125,9.5875c-0.0375,0.1625 -0.1875,0.3625 -0.3125,0.4375c-0.2125,0.1 -9.1875,0.875 -10.2625,0.875h-0.375v-3.625v-3.6375l-0.3125,-0.3c-0.4,-0.4125 -0.975,-0.4125 -1.375,0l-0.3125,0.3v18.3625v18.3625l-1.275,0.3875c-3.1,0.95 -6.225,1.575 -9.875,1.9875c-2.675,0.3 -9.025,0.3 -11.7,0c-3.625,-0.4125 -6.4625,-0.975 -9.6125,-1.9125l-1.5375,-0.4625v-18.3625v-18.3625l-0.325,-0.325c-0.2625,-0.2625 -0.4,-0.3 -0.775,-0.2375c-0.9,0.1375 -0.9,0.1625 -0.9,4.2125v3.6125h-0.3375c-1.05,0 -10.1,-0.775 -10.3,-0.875c-0.125,-0.075 -0.275,-0.275 -0.3125,-0.4375c-0.05,-0.2125 0.8625,-3.1375 3.0125,-9.5875c1.7,-5.1125 3.2,-9.50001 3.3375,-9.76251c0.3375,-0.675 1.175,-1.5625 1.7875,-1.875c0.5,-0.2625 8.7625,-3.425 9,-3.45c0.075,0 0.2625,0.425 0.4125,0.9625z" fill="#8f8f8f"></path></g></g></g></svg>