<svg version="1.1" xmlns="http://www.w3.org/2000/svg" xmlns:xlink="http://www.w3.org/1999/xlink" width="64" height="64" viewBox="0,0,256,256"><g fill="#c92071" fill-rule="nonzero" stroke="none" stroke-width="1" stroke-linecap="butt" stroke-linejoin="miter" stroke-miterlimit="10" stroke-dasharray="" stroke-dashoffset="0" font-family="none" font-weight="none" font-size="none" text-anchor="none" style="mix-blend-mode: normal"><g transform="translate(-0.26698,0) scale(4,4)"><path d="M20.3125,0.15c-0.525,0.3 -0.55,0.4625 -0.5625,2.7625v2.2125l-6.3875,27.125c-3.95003,16.825 -6.36253,27.3 -6.33753,27.5875c0.025,0.3125 0.1375,0.525 0.35,0.6875c0.325,0.2375 10.91253,3.475 11.36253,3.475c0.1375,0 0.3875,-0.125 0.5625,-0.2875c0.225,-0.1875 2.475,-5.325 7.775,-17.7125c4.1125,-9.5875 7.5,-17.475 7.5375,-17.525c0.075,-0.0875 4.7625,10.7 4.7625,10.9375c0,0.05 -1.15,0.0875 -2.5625,0.0875c-2.5625,0 -2.575,0 -2.875,0.3125l-0.3125,0.3v5.1875v5.1875l0.2875,0.325c0.25,0.2875 0.7125,0.4 5.875,1.4375c3.9,0.775 5.675,1.0875 5.875,1.0125c0.15,-0.0625 2.725,-2.3125 5.7125,-5c4.425,-3.975 5.4625,-4.975 5.6,-5.35c0.125,-0.35 0.15,-1.075 0.125,-2.6625l-0.05,-2.1875l-3.675,-16.125l-3.675,-16.125l-0.0625,-2.6l-0.075,-2.6125l-0.35,-0.3l-0.35,-0.3h-14.15c-10.4125,0.0125 -14.2125,0.05 -14.4,0.15zM26.125,3.1875v1.0625h-2.125h-2.125v-1.0625v-1.0625h2.125h2.125zM31.5,3.1875v1.0625h-1.625h-1.625v-1.0625v-1.0625h1.625h1.625zM35.75,3.1875v1.0625h-1.0625h-1.0625v-1.0625v-1.0625h1.0625h1.0625zM41.1,3.2125l0.0375,1.0375h-1.6375h-1.625v-1.0625v-1.075l1.6,0.0375l1.5875,0.0375zM47.5,3.1875v1.0625h-2.125h-2.125v-1.0625v-1.0625h2.125h2.125zM26.125,7.775c0,1.6625 -0.25,2.3625 -1.1,3.125c-0.7125,0.6375 -1.5125,0.85 -3.2375,0.85c-1.3,0 -1.425,-0.025 -1.3625,-0.225c0.075,-0.225 1.2,-5.025 1.2,-5.1c0,-0.025 1.0125,-0.05 2.25,-0.05h2.25zM33.625,15.8375v9.475l-7.7625,18.125c-4.275,9.9625 -7.775,18.1375 -7.7875,18.15c-0.0375,0.05 -8.47503,-2.4625 -8.65003,-2.575c-0.1,-0.05 1.53753,-7.2125 5.15003,-22.575c2.9125,-12.375 5.3,-22.5125 5.3,-22.5375c0,-0.0125 0.75,-0.025 1.675,-0.025c2.675,0 3.7625,-0.325 5.025,-1.525c1.225,-1.1625 1.675,-2.4 1.675,-4.6625v-1.3125h2.6875h2.6875zM37.875,14.6625v8.2875l-0.65,0.4875c-0.3625,0.2625 -0.85,0.6125 -1.0625,0.7875l-0.4125,0.3v-9.075v-9.075h1.0625h1.0625zM41.1375,8.125c0.0875,1.9375 0.1875,2.3375 0.8625,3.3375c0.5625,0.85 1.2375,1.4375 2.1625,1.8625c0.9375,0.425 1.7625,0.55 3.6,0.55c1.5625,0 1.6125,0.0125 1.675,0.275c1.4375,6.1 5.4375,24.275 5.4375,24.725v0.625h-6.55h-6.55l-2.7,-6.3c-1.4875,-3.4625 -2.7,-6.35 -2.7,-6.4125c0.0125,-0.05 0.7375,-0.6375 1.6125,-1.2875c0.8875,-0.65 1.7,-1.3375 1.8125,-1.525c0.175,-0.2875 0.2,-1.2875 0.2,-8.975v-8.6375l0.5375,0.0375l0.525,0.0375zM48.275,9c0.325,1.4125 0.5875,2.6125 0.5875,2.675c0.0125,0.05 -0.7375,0.0875 -1.6375,0.05c-1.55,-0.0375 -1.7125,-0.075 -2.325,-0.4c-1.275,-0.7 -1.65,-1.5 -1.65,-3.5125v-1.4375l2.2125,0.025l2.225,0.0375zM54.875,41.9375c0,0.25 -0.9625,1.175 -4.925,4.75l-4.925,4.4375l-4.3625,-0.875c-2.3875,-0.475 -4.475,-0.9 -4.625,-0.9375l-0.2875,-0.0625v-3.8125v-3.8125h9.5625h9.5625z"></path></g></g></svg>