<svg version="1.1" xmlns="http://www.w3.org/2000/svg" xmlns:xlink="http://www.w3.org/1999/xlink" width="64" height="64" viewBox="0,0,256,256"><defs><clipPath id="clip-1"><rect x="0" y="0" width="64" height="64" id="clip0_309_949" fill="none"></rect></clipPath></defs><g fill="none" fill-rule="nonzero" stroke="none" stroke-width="1" stroke-linecap="butt" stroke-linejoin="miter" stroke-miterlimit="10" stroke-dasharray="" stroke-dashoffset="0" font-family="none" font-weight="none" font-size="none" text-anchor="none" style="mix-blend-mode: normal"><g transform="scale(4,4)"><g clip-path="url(#clip-1)"><path d="M42.2,0.19997c-1.2625,0.4 -2.25,1.325 -2.6875,2.4875c-0.2125,0.575 -0.2375,0.9625 -0.2375,3.20001c0.0125,2.2375 -0.0125,2.675 -0.25,3.5125c-0.4625,1.71252 -1.1,2.67502 -2.2625,3.46252c-1.2875,0.875 -2.6375,1.4625 -4.1375,1.825c-1.325,0.3 -1.4625,0.275 -1.6375,-0.35c-0.4,-1.525 -1.725,-3.7375 -2.825,-4.71252c-1.6375,-1.4625 -5.0375,-2.275 -7.0125,-1.6875c-1.05,0.3125 -1.85,1.1875 -2.075,2.25002c-0.0375,0.2 -0.3,3.2625 -0.575,6.8l-0.5125,6.425l-4.4375,10.7c-2.4375,5.8875 -4.51249,10.8 -4.58749,10.9125c-0.0875,0.1125 -1.6125,1.45 -3.4,2.975c-1.7875,1.5125 -3.525,3.075 -3.85,3.475c-1.5875,1.9 -2.1,4.55 -1.3375,6.9c0.325,0.975 0.725,1.6625 1.9375,3.25c1.3875,1.825 2.125,2.225 4.325,2.3375c3.3125,0.175 7.13749,-0.6375 10.43749,-2.2125c2.375,-1.125 -0.5125,0.9625 32.1875,-23.2125c9.15,-6.775 9.4375,-6.9875 10.9875,-8.6125c1.3,-1.3625 2.2,-2.5875 2.875,-3.925c0.8625,-1.7125 1.0625,-2.825 0.6875,-3.8875c-0.275,-0.7625 -0.6875,-1.25 -1.8125,-2.1125c-0.5375,-0.425 -1.2625,-1.1125 -1.6,-1.525c-0.6,-0.725 -0.8,-1.05 -2.3125,-3.8125c-1.85,-3.375 -4.4625,-6.78752 -7.45,-9.76253c-1.825,-1.8125 -4.425,-3.9625 -5.3375,-4.4125c-0.9375,-0.4625 -2.175,-0.5875 -3.1,-0.2875zM44,2.24997c0.9875,0.275 5.3,4.12501 7.4875,6.68751c1.7875,2.08752 4.5625,6.05002 4.4875,6.38752c-0.025,0.075 -0.9375,0.8125 -2.0375,1.6375c-1.1625,0.8625 -2.1375,1.7 -2.3375,1.9875c-0.475,0.6875 -0.8625,1.6 -0.9625,2.275l-0.075,0.575l-1.25,0.7c-5.2625,2.9375 -9.2875,7.0375 -12.2,12.425l-0.675,1.2375l-1.375,0.825c-5.1875,3.15 -7.65,5.2625 -11.875,10.2c-6.0375,7.075 -12.375,10.9375 -17.91249,10.9375c-1.0625,0 -2.4625,-0.1875 -2.75,-0.3625c-0.0875,-0.05 -0.225,-0.4375 -0.3,-0.8625c-0.2375,-1.3125 0.225,-3.0125 1.1125,-4.0875c0.3125,-0.3625 6.6125,-5.8125 7.09999,-6.1375c0.1375,-0.0875 2.475,-1.125 5.1875,-2.3125c2.8625,-1.2375 5.2875,-2.375 5.775,-2.7c1.05,-0.6875 2.075,-1.8125 2.6375,-2.8875c0.2375,-0.4625 2.075,-5.5375 4.075,-11.2625c2.0125,-5.7375 3.6625,-10.45 3.675,-10.4625c0.0125,-0.025 0.4625,-0.125 0.975,-0.2375c1.35,-0.275 2.55,-0.7 3.825,-1.3625c2.0875,-1.075 3.2625,-2.275 4.0125,-4.1c0.6625,-1.60002 0.825,-2.62502 0.825,-5.43752c0.0125,-2.875 0.05,-2.97501 1.075,-3.51251c0.6125,-0.29999 0.85,-0.325 1.5,-0.15zM24.7,10.175c1.45,0.3875 2.4,1.15 3.275,2.6125c0.4375,0.725 1.05,2.1125 0.9625,2.1875c-0.025,0.025 -0.5125,-0.0125 -1.075,-0.0875c-2.9375,-0.4 -4.7125,0.0875 -6.3875,1.7375c-0.475,0.45 -0.85,0.75 -0.85,0.6625c0,-0.8125 0.5375,-6.6625 0.625,-6.8875c0.0625,-0.15 0.25,-0.3375 0.4,-0.40002c0.3625,-0.1625 2.2125,-0.05 3.05,0.17502zM28.075,17.0375l1.3875,0.15l-3.525,10.075c-1.9375,5.5375 -3.675,10.35 -3.875,10.6875c-0.5125,0.875 -1.525,1.8375 -2.4125,2.2875c-0.65,0.325 -7.6125,3.3875 -7.7125,3.3875c-0.0125,0 0.425,-1.1125 0.9875,-2.4625l1.025,-2.45l3,-0.85c3.2375,-0.925 3.55,-1.0875 3.55,-1.875c0,-0.4875 -0.4875,-0.9875 -0.9625,-0.9875c-0.2,0 -1.2375,0.25 -2.3125,0.5625c-1.075,0.3125 -2.0125,0.5625 -2.0875,0.5625c-0.0625,0 0.125,-0.575 0.4125,-1.275l0.5375,-1.2875l1.8625,-0.525c3.9875,-1.1375 4.05,-1.175 4.05,-1.975c0,-0.55 -0.4625,-1.0625 -0.9375,-1.0625c-0.1875,0 -1.1125,0.225 -2.0625,0.5c-0.95,0.275 -1.7625,0.5 -1.7875,0.5c-0.0625,0 0.9,-2.4 1.025,-2.525c0.0375,-0.05 1.125,-0.3875 2.3875,-0.75c2.55,-0.7125 2.875,-0.9 2.875,-1.65c0,-0.325 -0.0875,-0.5 -0.3875,-0.75c-0.2125,-0.175 -0.4625,-0.325 -0.575,-0.325c-0.15,0 -1.0375,0.2375 -3.0625,0.825c-0.1625,0.05 -0.0875,-0.2125 0.325,-1.2125c0.3,-0.7 0.625,-1.3125 0.7125,-1.3625c0.1,-0.05 1.025,-0.3375 2.05,-0.625c1.425,-0.3875 1.9375,-0.5875 2.1625,-0.825c0.35,-0.3875 0.35,-0.9125 0.0125,-1.35c-0.325,-0.425 -0.8375,-0.425 -2.2125,-0.025c-0.5625,0.1625 -1.025,0.25 -1.025,0.1875c0,-0.325 0.775,-1.7625 1.2,-2.2375c1.275,-1.4 2.3,-1.6625 5.375,-1.3375zM59.025,20.175c0.3875,0.4375 1.1375,1.1125 1.6625,1.5125c0.525,0.3875 1.0125,0.8625 1.075,1.05c0.5125,1.3 -1.85,4.9125 -4.8,7.3625c-0.5875,0.4875 -0.9625,0.7125 -1,0.6125c-0.0375,-0.075 -0.7375,-1.7875 -1.5625,-3.7875c-1.6875,-4.0875 -1.825,-4.5125 -1.725,-5.225c0.1625,-1.0625 0.65,-1.6375 2.575,-3.075l1.8,-1.3375l0.625,1.05c0.35,0.575 0.9625,1.4 1.35,1.8375zM52.55,28.025c0.8875,2.15 1.6125,3.975 1.625,4.0625c0.0125,0.075 -4.0625,3.1625 -9.05,6.8375c-10.3875,7.6875 -9.3875,7.1875 -8.8125,4.4c1.55,-7.6875 6.225,-14.2875 13,-18.3625c0.7625,-0.4625 1.4375,-0.8375 1.5,-0.8375c0.075,0 0.85,1.7625 1.7375,3.9zM35.075,39.775c-0.7375,2.5625 -1.325,5.6 -1.325,6.875c0,0.3 -0.075,0.6375 -0.15,0.75c-0.1875,0.225 -14.35,10.6875 -15.2875,11.2875c-1.6,1.025 -3.8125,1.975 -5.75,2.475c-1.9625,0.5 -2.98749,0.6375 -4.99999,0.6375c-2.1625,0.0125 -2.55,-0.1 -3.1875,-0.975l-0.3875,-0.5125l1.85,-0.0875c2.175,-0.0875 3.9125,-0.4875 6.03749,-1.3875c4.375,-1.8375 9.075,-5.6125 13.2625,-10.65c1.8875,-2.275 3.775,-4.1625 5.7125,-5.725c1.4375,-1.15 3.9875,-2.95 4.2,-2.9625c0.05,0 0.0625,0.125 0.025,0.275z" fill="#c92071"></path><path d="M47.7501,29.3375c-0.3,0.3875 -0.3,0.725 0.0125,2.475c0.25,1.45 1.0875,1.9875 1.875,1.2c0.425,-0.425 0.425,-0.4625 0.175,-1.95c-0.3125,-1.8 -0.475,-2.0625 -1.3625,-2.0625c-0.325,0 -0.5,0.0875 -0.7,0.3375z" fill="#c92071"></path><path d="M43.9,32.125c-0.5625,0.2375 -0.65,0.775 -0.375,2.3125c0.275,1.5625 0.5125,1.9375 1.175,1.9375c0.575,0 0.7875,-0.1125 1,-0.525c0.1625,-0.325 0.1625,-0.4875 -0.0625,-1.725c-0.2875,-1.5625 -0.4,-1.8375 -0.8375,-2c-0.375,-0.15 -0.525,-0.15 -0.9,0z" fill="#c92071"></path></g></g></g></svg>